<?xml version="1.0" standalone="no"?>
<!DOCTYPE svg PUBLIC "-//W3C//DTD SVG 20010904//EN"
 "http://www.w3.org/TR/2001/REC-SVG-20010904/DTD/svg10.dtd">
<svg version="1.0" xmlns="http://www.w3.org/2000/svg"
 width="512.000000pt" height="512.000000pt" viewBox="0 0 512.000000 512.000000"
 preserveAspectRatio="xMidYMid meet">

<g transform="translate(0.000000,512.000000) scale(0.100000,-0.100000)"
fill="#000000" stroke="none">
<path d="M1611 5109 c-383 -40 -757 -207 -1035 -461 -425 -388 -635 -982 -560
-1586 66 -538 297 -1011 687 -1404 207 -209 404 -351 661 -478 317 -157 586
-226 924 -237 260 -9 476 23 710 103 l104 36 482 -480 c400 -399 492 -485 546
-515 196 -107 423 -113 615 -18 336 167 467 552 303 891 -41 84 -47 91 -526
571 l-484 487 36 104 c147 428 140 908 -20 1369 -246 708 -855 1298 -1574
1524 -279 88 -595 122 -869 94z m460 -315 c653 -91 1247 -516 1569 -1122 l44
-83 -1077 -1076 -1076 -1077 -83 44 c-470 249 -832 659 -1019 1156 -146 388
-159 831 -35 1189 180 522 621 883 1181 969 124 19 360 19 496 0z m1757 -1629
c33 -144 44 -249 43 -420 0 -230 -39 -428 -121 -617 -22 -50 -42 -105 -46
-124 -10 -56 25 -108 166 -249 l130 -130 -252 -252 -252 -252 -141 138 c-182
179 -198 185 -341 120 -313 -140 -720 -171 -1079 -83 -33 8 -67 17 -75 20 -9
3 322 341 960 979 536 536 977 971 981 967 4 -4 16 -47 27 -97z m952 -2350
c18 -37 25 -72 28 -135 5 -118 -19 -183 -102 -266 -83 -83 -148 -107 -266
-102 -136 6 -146 14 -458 322 l-272 271 252 252 253 253 270 -272 c201 -202
277 -286 295 -323z"/>
</g>
</svg>
